<?xml version="1.0" ?><svg xmlns="http://www.w3.org/2000/svg" xmlns:xlink="http://www.w3.org/1999/xlink" version="1.1" id="Layer_1" viewBox="0 0 1000 1000" style="enable-background:new 0 0 1000 1000;" xml:space="preserve"><style type="text/css">
</style><g><path class="st0" d="M334.62,230.44c-13.35,41.35-19.04,85.13-16.28,129.24c5.37,83.99,41.18,163.1,100.76,222.68   c33.04,33.04,71.62,58.6,114.43,76.02c41.51,16.77,85.29,25.39,130.22,25.39c35.65,0,70.81-5.37,104.66-16.11   c-11.72,17.74-25.23,34.51-40.37,49.65l-0.49,0.49c-59.41,58.92-138.2,91.48-222.03,91.48c-83.99,0-163.1-32.72-222.51-92.13   c-59.41-59.58-92.13-138.52-92.13-222.68c0-83.99,32.72-163.1,92.13-222.51C298.81,256.32,316.23,242.33,334.62,230.44    M419.43,151.66c-60.06,14.98-116.87,45.9-163.92,92.78c-138.03,138.03-138.03,362.01,0,500.37   c69.02,69.02,159.52,103.53,250.02,103.53s181.01-34.51,250.02-103.53c46.23-46.23,76.99-102.55,92.46-161.64   c-54.37,41.02-119.31,61.37-184.26,61.37c-78.62,0-157.08-29.95-217.14-89.85C336.74,444.66,327.62,272.11,419.43,151.66   L419.43,151.66z"/></g></svg>