<?xml version="1.0" encoding="UTF-8"?>
<svg viewBox="0 0 32 32" xmlns="http://www.w3.org/2000/svg">
  <!-- фон прозрачный -->
  <g id="logout" stroke="#FFFFFF" stroke-linecap="round" stroke-linejoin="round" stroke-width="1.5">
    <line x1="15.92" y1="16" x2="28.92" y2="16"/>
    <!-- Удалена темная линия внутри пути -->
    <path d="M23.93,25v3h-16V4h16V7h2V3a1,1,0,0,0-1-1h-18a1,1,0,0,0-1,1V29a1,1,0,0,0,1,1h18a1,1,0,0,0,1-1V25Z" fill="none"/>
    <line x1="28.92" y1="16" x2="24.92" y2="20"/>
    <line x1="28.92" y1="16" x2="24.92" y2="12"/>
    <line x1="24.92" y1="8.09" x2="24.92" y2="6.09"/>
    <line x1="24.92" y1="26" x2="24.92" y2="24"/>
  </g>
</svg>